# xmcd
#
# Track frame offsets: 
#        150
#        21013
#        42486
#        60520
#        73686
#        102011
#        117261
#        139550
#        150685
#        164592
#        178011
#        199828
#        213395
#        229291
#        251239
#        268610
#        279480
#        298509
#        321690
#
# Disc length: 4500 seconds
#
# Revision: 1
# Processed by: cddbd v1.5.2PL0 Copyright (c) Steve Scherf et al.
# Submitted via: ExactAudioCopyFreeDBPlugin 1.0
#
DISCID=26119213
DTITLE=Nina Simone - The Very Best Of Nina Simone Vol. 2
DYEAR=2006
DGENRE=Jazz
TTITLE0=Baltimore
TTITLE1=The Pusher
TTITLE2=I Shall Be Released
TTITLE3=It Be's That Way Sometimes
TTITLE4=How Long Must I Wander
TTITLE5=Save Me
TTITLE6=The Family
TTITLE7=Backlash Blues
TTITLE8=I Can't See Nobody
TTITLE9=Seems I'm Never Tired Of Lovin' You
TTITLE10=New World Coming
TTITLE11=Black Is The Colour Of My True Love's Hair
TTITLE12=Angel Of The Morning
TTITLE13=I Get Along Without You Very Well
TTITLE14=The House Of The Rising Sun
TTITLE15=Turn Me On
TTITLE16=My Man's Gone Now
TTITLE17=My Way
TTITLE18=O-o-h Child
EXTD=
EXTT0=
EXTT1=
EXTT2=
EXTT3=
EXTT4=
EXTT5=
EXTT6=
EXTT7=
EXTT8=
EXTT9=
EXTT10=
EXTT11=
EXTT12=
EXTT13=
EXTT14=
EXTT15=
EXTT16=
EXTT17=
EXTT18=
PLAYORDER=
